# xmcd CD database file
# Copyright (C) 1993-1998 Ti Kan
#
# Track frame offsets:
#	150
#	13963
#	29423
#	46460
#	61678
#	77678
#	90858
#	105235
#	119583
#	136275
#	154220
#	169648
#	183548
#	203393
#
# Disc length: 2898 seconds
#
# Revision: 1
# Processed by: cddbd v1.4b41PL1 Copyright (c) Steve Scherf et al.
# Submitted via: CDValet v3.31 - Copyright (c) 1997 Greg Leichner
#
DISCID=a90b500e
DTITLE=Hot Hits Country Jukebox Edition - Country Hot Hits #22
DYEAR=1900
DGENRE=
TTITLE0=T-R-O-U-B-L-E
TTITLE1=Someone To Give My Love To
TTITLE2=Change - The
TTITLE3=Heart Won't Lie - The
TTITLE4=Tonight I Climbed The Wall
TTITLE5=She Don't Know She's Beautiful
TTITLE6=Made For Lovin' you
TTITLE7=Tender Moment
TTITLE8=You Say You Will
TTITLE9=I'd Rather Miss You
TTITLE10=My Blue Angel
TTITLE11=Alibis
TTITLE12=My Strongest Weakness
TTITLE13=Now I Pray For Rain
EXTD=
EXTT0=Tritt - Travis
EXTT1=Byrd - Tracy
EXTT2=Wright - Michelle
EXTT3=McEntire - Reba and Gill - Vince
EXTT4=Jackson - Alan
EXTT5=Kershaw - Sammy
EXTT6=Stone - Doug
EXTT7=Parnell - Lee Roy
EXTT8=Yearwood - Trisha
EXTT9=Little Texas
EXTT10=Tippin - Aaron
EXTT11=Lawrence - Tracy
EXTT12=Judd - Wynonna
EXTT13=McCoy - Neal
PLAYORDER=
